<svg width="333" height="352" viewBox="0 0 333 352" fill="none" xmlns="http://www.w3.org/2000/svg">
<path d="M277.113 25.1594C277.984 24.563 279.173 24.785 279.769 25.6554C280.366 26.5258 280.144 27.715 279.273 28.3114L278.193 26.7354L277.113 25.1594ZM89.2929 345.633L80.3003 325.488L102.243 327.773L89.2929 345.633ZM278.193 26.7354L279.273 28.3114C278.267 29.0011 277.263 29.6952 276.262 30.3938L275.169 28.8269L274.075 27.2601C275.085 26.5553 276.098 25.8551 277.113 25.1594L278.193 26.7354ZM269.171 33.0874L270.291 34.6355C268.314 36.065 266.348 37.5122 264.393 38.9771L263.247 37.4481L262.101 35.919C264.074 34.4412 266.058 32.9812 268.052 31.5392L269.171 33.0874ZM257.398 41.908L258.569 43.4175C256.642 44.9127 254.725 46.4256 252.82 47.9558L251.624 46.4663L250.427 44.9769C252.349 43.4331 254.282 41.907 256.226 40.3985L257.398 41.908ZM245.927 51.1219L247.149 52.591C245.274 54.1503 243.41 55.7268 241.557 57.3206L240.311 55.8723L239.065 54.4241C240.934 52.8163 242.814 51.2259 244.706 49.6528L245.927 51.1219ZM234.776 60.7168L236.047 62.1438C234.225 63.7655 232.415 65.4041 230.617 67.0597L229.323 65.6543L228.029 64.249C229.842 62.5788 231.668 60.9257 233.506 59.2898L234.776 60.7168ZM223.954 70.6836L225.271 72.067C223.506 73.7489 221.752 75.4475 220.011 77.1628L218.671 75.8019L217.33 74.4409C219.086 72.7106 220.855 70.997 222.636 69.3003L223.954 70.6836ZM213.475 81.0083L214.838 82.3465C213.13 84.0869 211.435 85.8437 209.753 87.6169L208.367 86.3019L206.981 84.9869C208.678 83.1981 210.388 81.4258 212.111 79.6701L213.475 81.0083ZM203.348 91.6812L204.756 92.9727C203.107 94.7694 201.472 96.5823 199.85 98.4112L198.421 97.1435L196.991 95.8758C198.628 94.0308 200.277 92.2021 201.94 90.3896L203.348 91.6812ZM193.586 102.687L195.037 103.931C193.45 105.781 191.876 107.648 190.316 109.53L188.845 108.311L187.374 107.092C188.948 105.193 190.535 103.31 192.136 101.443L193.586 102.687ZM184.199 114.015L185.69 115.209C184.166 117.112 182.655 119.031 181.158 120.965L179.647 119.796L178.136 118.626C179.646 116.675 181.17 114.74 182.707 112.82L184.199 114.015ZM175.195 125.649L176.725 126.793C175.265 128.746 173.82 130.713 172.388 132.695L170.839 131.577L169.29 130.459C170.734 128.459 172.192 126.475 173.664 124.505L175.195 125.649ZM166.583 137.577L168.15 138.669C166.756 140.669 165.376 142.684 164.011 144.713L162.426 143.647L160.841 142.58C162.218 140.533 163.61 138.501 165.016 136.484L166.583 137.577ZM158.369 149.785L159.972 150.825C158.645 152.869 157.333 154.927 156.035 157L154.416 155.986L152.796 154.973C154.105 152.882 155.429 150.806 156.767 148.744L158.369 149.785ZM150.564 162.253L152.2 163.24C151.569 164.285 150.942 165.333 150.319 166.385L148.675 165.412L147.032 164.438C147.66 163.377 148.292 162.319 148.928 161.266L150.564 162.253ZM148.675 165.412L150.319 166.385C149.696 167.437 149.078 168.491 148.464 169.546L146.812 168.586L145.161 167.626C145.779 166.562 146.403 165.499 147.032 164.438L148.675 165.412ZM143.168 174.975L144.835 175.908C143.641 178.042 142.466 180.182 141.311 182.328L139.629 181.422L137.946 180.517C139.111 178.353 140.296 176.194 141.501 174.042L143.168 174.975ZM136.195 187.929L137.892 188.807C136.768 190.979 135.664 193.158 134.581 195.341L132.869 194.491L131.158 193.642C132.251 191.44 133.365 189.243 134.498 187.051L136.195 187.929ZM129.653 201.107L131.378 201.928C130.327 204.136 129.296 206.349 128.286 208.567L126.547 207.775L124.809 206.983C125.828 204.745 126.868 202.513 127.928 200.286L129.653 201.107ZM123.553 214.493L125.305 215.256C124.328 217.498 123.371 219.745 122.434 221.996L120.67 221.262L118.906 220.528C119.851 218.257 120.816 215.991 121.802 213.73L123.553 214.493ZM117.901 228.078L119.677 228.782C118.776 231.055 117.895 233.332 117.035 235.612L115.247 234.938L113.459 234.264C114.328 231.963 115.216 229.666 116.125 227.373L117.901 228.078ZM112.708 241.841L114.507 242.486C113.682 244.787 112.878 247.092 112.095 249.401L110.285 248.787L108.476 248.173C109.267 245.844 110.078 243.519 110.91 241.197L112.708 241.841ZM107.979 255.773L109.799 256.357C109.052 258.684 108.326 261.015 107.62 263.35L105.791 262.797L103.963 262.244C104.675 259.889 105.407 257.538 106.16 255.19L107.979 255.773ZM103.722 269.855L105.56 270.377C104.892 272.728 104.245 275.082 103.619 277.439L101.772 276.948L99.9258 276.457C100.558 274.079 101.211 271.705 101.884 269.333L103.722 269.855ZM99.9416 284.073L101.796 284.533C101.208 286.905 100.64 289.28 100.094 291.657L98.2317 291.228L96.3698 290.8C96.9215 288.402 97.494 286.007 98.0872 283.614L99.9416 284.073ZM96.6429 298.41L98.5118 298.807C98.0041 301.197 97.5171 303.59 97.0508 305.984L95.1755 305.618L93.3002 305.253C93.7706 302.838 94.2619 300.425 94.774 298.013L96.6429 298.41ZM93.8298 312.851L95.711 313.184C95.2843 315.59 94.8784 317.998 94.493 320.407L92.6065 320.105L90.7199 319.803C91.1086 317.373 91.5182 314.944 91.9486 312.517L93.8298 312.851ZM91.5059 327.378L93.3973 327.648C93.0522 330.066 92.7277 332.486 92.4239 334.906L90.5283 334.668L88.6326 334.431C88.939 331.989 89.2663 329.548 89.6145 327.108L91.5059 327.378ZM277.113 25.1594C277.984 24.563 279.173 24.785 279.769 25.6554C280.366 26.5258 280.144 27.715 279.273 28.3114L278.193 26.7354L277.113 25.1594ZM89.2929 345.633L80.3003 325.488L102.243 327.773L89.2929 345.633ZM278.193 26.7354L279.273 28.3114C278.267 29.0011 277.263 29.6952 276.262 30.3938L275.169 28.8269L274.075 27.2601C275.085 26.5553 276.098 25.8551 277.113 25.1594L278.193 26.7354ZM269.171 33.0874L270.291 34.6355C268.314 36.065 266.348 37.5122 264.393 38.9771L263.247 37.4481L262.101 35.919C264.074 34.4412 266.058 32.9812 268.052 31.5392L269.171 33.0874ZM257.398 41.908L258.569 43.4175C256.642 44.9127 254.725 46.4256 252.82 47.9558L251.624 46.4663L250.427 44.9769C252.349 43.4331 254.282 41.907 256.226 40.3985L257.398 41.908ZM245.927 51.1219L247.149 52.591C245.274 54.1503 243.41 55.7268 241.557 57.3206L240.311 55.8723L239.065 54.4241C240.934 52.8163 242.814 51.2259 244.706 49.6528L245.927 51.1219ZM234.776 60.7168L236.047 62.1438C234.225 63.7655 232.415 65.4041 230.617 67.0597L229.323 65.6543L228.029 64.249C229.842 62.5788 231.668 60.9257 233.506 59.2898L234.776 60.7168ZM223.954 70.6836L225.271 72.067C223.506 73.7489 221.752 75.4475 220.011 77.1628L218.671 75.8019L217.33 74.4409C219.086 72.7106 220.855 70.997 222.636 69.3003L223.954 70.6836ZM213.475 81.0083L214.838 82.3465C213.13 84.0869 211.435 85.8437 209.753 87.6169L208.367 86.3019L206.981 84.9869C208.678 83.1981 210.388 81.4258 212.111 79.6701L213.475 81.0083ZM203.348 91.6812L204.756 92.9727C203.107 94.7694 201.472 96.5823 199.85 98.4112L198.421 97.1435L196.991 95.8758C198.628 94.0308 200.277 92.2021 201.94 90.3896L203.348 91.6812ZM193.586 102.687L195.037 103.931C193.45 105.781 191.876 107.648 190.316 109.53L188.845 108.311L187.374 107.092C188.948 105.193 190.535 103.31 192.136 101.443L193.586 102.687ZM184.199 114.015L185.69 115.209C184.166 117.112 182.655 119.031 181.158 120.965L179.647 119.796L178.136 118.626C179.646 116.675 181.17 114.74 182.707 112.82L184.199 114.015ZM175.195 125.649L176.725 126.793C175.265 128.746 173.82 130.713 172.388 132.695L170.839 131.577L169.29 130.459C170.734 128.459 172.192 126.475 173.664 124.505L175.195 125.649ZM166.583 137.577L168.15 138.669C166.756 140.669 165.376 142.684 164.011 144.713L162.426 143.647L160.841 142.58C162.218 140.533 163.61 138.501 165.016 136.484L166.583 137.577ZM158.369 149.785L159.972 150.825C158.645 152.869 157.333 154.927 156.035 157L154.416 155.986L152.796 154.973C154.105 152.882 155.429 150.806 156.767 148.744L158.369 149.785ZM150.564 162.253L152.2 163.24C151.569 164.285 150.942 165.333 150.319 166.385L148.675 165.412L147.032 164.438C147.66 163.377 148.292 162.319 148.928 161.266L150.564 162.253ZM148.675 165.412L150.319 166.385C149.696 167.437 149.078 168.491 148.464 169.546L146.812 168.586L145.161 167.626C145.779 166.562 146.403 165.499 147.032 164.438L148.675 165.412ZM143.168 174.975L144.835 175.908C143.641 178.042 142.466 180.182 141.311 182.328L139.629 181.422L137.946 180.517C139.111 178.353 140.296 176.194 141.501 174.042L143.168 174.975ZM136.195 187.929L137.892 188.807C136.768 190.979 135.664 193.158 134.581 195.341L132.869 194.491L131.158 193.642C132.251 191.44 133.365 189.243 134.498 187.051L136.195 187.929ZM129.653 201.107L131.378 201.928C130.327 204.136 129.296 206.349 128.286 208.567L126.547 207.775L124.809 206.983C125.828 204.745 126.868 202.513 127.928 200.286L129.653 201.107ZM123.553 214.493L125.305 215.256C124.328 217.498 123.371 219.745 122.434 221.996L120.67 221.262L118.906 220.528C119.851 218.257 120.816 215.991 121.802 213.73L123.553 214.493ZM117.901 228.078L119.677 228.782C118.776 231.055 117.895 233.332 117.035 235.612L115.247 234.938L113.459 234.264C114.328 231.963 115.216 229.666 116.125 227.373L117.901 228.078ZM112.708 241.841L114.507 242.486C113.682 244.787 112.878 247.092 112.095 249.401L110.285 248.787L108.476 248.173C109.267 245.844 110.078 243.519 110.91 241.197L112.708 241.841ZM107.979 255.773L109.799 256.357C109.052 258.684 108.326 261.015 107.62 263.35L105.791 262.797L103.963 262.244C104.675 259.889 105.407 257.538 106.16 255.19L107.979 255.773ZM103.722 269.855L105.56 270.377C104.892 272.728 104.245 275.082 103.619 277.439L101.772 276.948L99.9258 276.457C100.558 274.079 101.211 271.705 101.884 269.333L103.722 269.855ZM99.9416 284.073L101.796 284.533C101.208 286.905 100.64 289.28 100.094 291.657L98.2317 291.228L96.3698 290.8C96.9215 288.402 97.494 286.007 98.0872 283.614L99.9416 284.073ZM96.6429 298.41L98.5118 298.807C98.0041 301.197 97.5171 303.59 97.0508 305.984L95.1755 305.618L93.3002 305.253C93.7706 302.838 94.2619 300.425 94.774 298.013L96.6429 298.41ZM93.8298 312.851L95.711 313.184C95.2843 315.59 94.8784 317.998 94.493 320.407L92.6065 320.105L90.7199 319.803C91.1086 317.373 91.5182 314.944 91.9486 312.517L93.8298 312.851ZM91.5059 327.378L93.3973 327.648C93.0522 330.066 92.7277 332.486 92.4239 334.906L90.5283 334.668L88.6326 334.431C88.939 331.989 89.2663 329.548 89.6145 327.108L91.5059 327.378Z" fill="#24A4FF"/>
</svg>
